# xmcd CD database file
#
# Track frame offsets:
#	150
#	19272
#	33106
#	46953
#	59845
#	73108
#	92945
#	113225
#	135392
#	154583
#	177565
#	189485
#	209141
#	227788
#	245931
#	260615
#	280867
#	288557
#	312771
#
# Disc length: 4429 seconds
#
# Revision: 0
# Processed by: cddbd v1.5.2PL0 Copyright (c) Steve Scherf et al.
# Submitted via: CDex 1.70beta2
#
DISCID=29114b13
DTITLE=Blue Honky Tonk - live im Cafe Spizz
DYEAR=2010
DGENRE=Jazz
TTITLE0=Mister Joe (Jelly Roll Morton)
TTITLE1=Maple Leaf Rag (Scott Joplin)
TTITLE2=Carolina Shouts (James Pete Johnson)
TTITLE3=Send for Me (Nat King Cole)
TTITLE4=Holler Stomp (Pete Johnsons)
TTITLE5=Vipers Drag (Fats Waller)
TTITLE6=Fingerbreaker (Jelly Roll Morton)
TTITLE7=New Orleans Blues (Jelly Roll Morton)
TTITLE8=Pinetops Boogie Woogie (Pinetops Smiths)
TTITLE9=Honky Tonk Train Blues (Mead Lux Lewis)
TTITLE10=Original Jelly Roll Blues (Jelly Roll Morton)
TTITLE11=Dive Bomber (Pete Johnson)
TTITLE12=Whole Lotha Shaking Going On (Jerry Lee  Lewis)
TTITLE13=Fingerbuster (Willie "the lion" Smith)
TTITLE14=Rock Bertha Rock (Big Bertha Henderson)
TTITLE15=Mead's Boogie (Mead Lux Lewis)
TTITLE16=High Heel Sneaker (Tommy Tucker)
TTITLE17=Thank you (Elisa Weiss)
TTITLE18=Whiskey And Women (John Lee Hooker)
EXTD=YEAR: 2010
EXTT0=
EXTT1=
EXTT2=
EXTT3=
EXTT4=
EXTT5=
EXTT6=
EXTT7=
EXTT8=
EXTT9=
EXTT10=
EXTT11=
EXTT12=
EXTT13=
EXTT14=
EXTT15=
EXTT16=
EXTT17=
EXTT18=
PLAYORDER=
